<svg width="108" height="26" viewBox="0 0 108 26" fill="none" xmlns="http://www.w3.org/2000/svg"><path d="M0.742878 14.3629C-0.247626 13.3844 -0.247626 11.7979 0.742878 10.8194L10.9518 0.733892C11.9423 -0.244631 13.5483 -0.244631 14.5388 0.733892C15.5293 1.71241 15.5293 3.29891 14.5388 4.27743L4.32981 14.3629C3.33931 15.3414 1.73338 15.3414 0.742878 14.3629Z" fill="url(#paint0_linear_1131_899)"/><path d="M6.26123 19.8145C5.27073 18.836 5.27073 17.2495 6.26123 16.271L16.4702 6.18549C17.4607 5.20697 19.0666 5.20697 20.0571 6.18549C21.0476 7.16402 21.0476 8.75052 20.0571 9.72904L9.84816 19.8145C8.85766 20.793 7.25174 20.793 6.26123 19.8145Z" fill="url(#paint1_linear_1131_899)"/><path d="M11.7796 25.2661C10.7891 24.2876 10.7891 22.7011 11.7796 21.7226C12.7701 20.744 14.376 20.744 15.3665 21.7226C16.357 22.7011 16.357 24.2876 15.3665 25.2661C14.376 26.2446 12.7701 26.2446 11.7796 25.2661Z" fill="url(#paint2_linear_1131_899)"/><path d="M100.625 26C99.0082 26 97.5534 25.7342 96.2602 25.2027C94.99 24.648 93.9508 23.8622 93.1426 22.8454L95.9138 20.4534C96.6066 21.2391 97.3802 21.8054 98.2346 22.152C99.0891 22.4987 99.9897 22.672 100.937 22.672C101.329 22.672 101.676 22.6258 101.976 22.5334C102.299 22.4409 102.576 22.3022 102.807 22.1174C103.038 21.9325 103.211 21.7245 103.327 21.4934C103.465 21.2391 103.535 20.9618 103.535 20.6614C103.535 20.1067 103.327 19.6676 102.911 19.344C102.68 19.1822 102.311 19.0089 101.803 18.824C101.318 18.6391 100.683 18.4542 99.8973 18.2694C98.6503 17.9458 97.6111 17.576 96.7798 17.16C95.9484 16.7209 95.3018 16.2356 94.8399 15.704C94.4473 15.2649 94.1471 14.768 93.9393 14.2134C93.7546 13.6587 93.6622 13.0578 93.6622 12.4107C93.6622 11.6018 93.8354 10.8738 94.1818 10.2267C94.5513 9.55646 95.0478 8.97869 95.6713 8.49335C96.2948 8.00802 97.0222 7.63824 97.8536 7.38402C98.6849 7.1298 99.5509 7.00269 100.452 7.00269C101.375 7.00269 102.264 7.11824 103.119 7.34935C103.996 7.58047 104.805 7.91558 105.544 8.35469C106.306 8.77069 106.952 9.27913 107.483 9.88002L105.128 12.48C104.689 12.064 104.204 11.6942 103.673 11.3707C103.165 11.0471 102.645 10.7929 102.114 10.608C101.583 10.4 101.087 10.296 100.625 10.296C100.186 10.296 99.7934 10.3422 99.447 10.4347C99.1006 10.504 98.812 10.6196 98.581 10.7814C98.3501 10.9431 98.1653 11.1511 98.0268 11.4054C97.9113 11.6365 97.8536 11.9138 97.8536 12.2374C97.8767 12.5147 97.946 12.7805 98.0614 13.0347C98.2 13.2658 98.3847 13.4622 98.6157 13.624C98.8697 13.7858 99.2507 13.9707 99.7588 14.1787C100.267 14.3867 100.925 14.5831 101.733 14.768C102.865 15.0685 103.812 15.4036 104.574 15.7734C105.336 16.1431 105.936 16.5707 106.375 17.056C106.814 17.472 107.125 17.9574 107.31 18.512C107.495 19.0667 107.587 19.6791 107.587 20.3494C107.587 21.4356 107.276 22.4062 106.652 23.2614C106.052 24.1165 105.22 24.7867 104.158 25.272C103.119 25.7574 101.941 26 100.625 26Z" fill="black"/><path d="M82.2638 26C81.4555 26 80.6588 25.8844 79.8736 25.6533C79.1115 25.3991 78.4188 25.064 77.7952 24.648C77.1717 24.232 76.6521 23.7698 76.2364 23.2613C75.8208 22.7298 75.5437 22.1982 75.4051 21.6667L76.4096 21.216L76.3057 25.584H72.1836V0H76.4443V11.6133L75.6822 11.2667C75.7977 10.712 76.0517 10.192 76.4443 9.70667C76.86 9.19822 77.368 8.74755 77.9684 8.35467C78.5689 7.93867 79.227 7.61511 79.9429 7.384C80.6588 7.12978 81.3862 7.00266 82.1252 7.00266C83.7648 7.00266 85.2081 7.40711 86.4552 8.216C87.7253 9.02489 88.7183 10.1458 89.4342 11.5787C90.1732 13.0116 90.5427 14.6409 90.5427 16.4667C90.5427 18.3156 90.1847 19.9564 89.4688 21.3893C88.7529 22.8222 87.7599 23.9547 86.4898 24.7867C85.2428 25.5956 83.8341 26 82.2638 26ZM81.3631 22.256C82.333 22.256 83.199 22.0133 83.9611 21.528C84.7232 21.0196 85.3236 20.3378 85.7624 19.4827C86.2012 18.6044 86.4205 17.5991 86.4205 16.4667C86.4205 15.3573 86.2012 14.3751 85.7624 13.52C85.3467 12.6649 84.7578 11.9947 83.9957 11.5093C83.2337 11.024 82.3561 10.7813 81.3631 10.7813C80.3701 10.7813 79.4926 11.024 78.7305 11.5093C77.9684 11.9947 77.368 12.6649 76.9292 13.52C76.4905 14.3751 76.2711 15.3573 76.2711 16.4667C76.2711 17.5991 76.4905 18.6044 76.9292 19.4827C77.368 20.3378 77.9684 21.0196 78.7305 21.528C79.4926 22.0133 80.3701 22.256 81.3631 22.256Z" fill="black"/><path d="M59.1911 26C57.6901 26 56.3276 25.584 55.1036 24.752C53.8797 23.92 52.8982 22.7876 52.1593 21.3547C51.4203 19.9218 51.0508 18.2925 51.0508 16.4667C51.0508 14.6409 51.4203 13.0116 52.1593 11.5787C52.8982 10.1458 53.9028 9.02491 55.1729 8.21602C56.443 7.40713 57.8748 7.00269 59.4682 7.00269C60.392 7.00269 61.2349 7.14135 61.9969 7.41869C62.759 7.67291 63.4287 8.04269 64.0061 8.52802C64.5834 9.01335 65.0568 9.56802 65.4263 10.192C65.8189 10.816 66.0844 11.4862 66.223 12.2027L65.2877 11.96V7.38402H69.5831V25.6534H65.2531V21.2854L66.2576 21.112C66.096 21.736 65.7958 22.3485 65.357 22.9494C64.9413 23.5271 64.4102 24.0471 63.7636 24.5094C63.1401 24.9485 62.4357 25.3067 61.6505 25.584C60.8885 25.8614 60.0687 26 59.1911 26ZM60.3689 22.2214C61.3619 22.2214 62.2394 21.9787 63.0015 21.4934C63.7636 21.008 64.3525 20.3378 64.7681 19.4827C65.2069 18.6045 65.4263 17.5991 65.4263 16.4667C65.4263 15.3574 65.2069 14.3751 64.7681 13.52C64.3525 12.6649 63.7636 11.9947 63.0015 11.5094C62.2394 11.024 61.3619 10.7814 60.3689 10.7814C59.3759 10.7814 58.4983 11.024 57.7363 11.5094C56.9973 11.9947 56.4199 12.6649 56.0043 13.52C55.5886 14.3751 55.3808 15.3574 55.3808 16.4667C55.3808 17.5991 55.5886 18.6045 56.0043 19.4827C56.4199 20.3378 56.9973 21.008 57.7363 21.4934C58.4983 21.9787 59.3759 22.2214 60.3689 22.2214Z" fill="black"/><path d="M44.1553 25.6533V0H48.4506V25.6533H44.1553Z" fill="black"/><path d="M31.9606 25.6533V11.5093H29.1201V7.76533H31.9606V5.75467C31.9606 4.64533 32.2031 3.66311 32.688 2.808C33.173 1.92978 33.8427 1.248 34.6971 0.762665C35.5516 0.254222 36.5446 0 37.6761 0C38.4613 0 39.1887 0.138666 39.8584 0.415999C40.5281 0.670222 41.0939 1.02844 41.5558 1.49067L40.2395 4.71467C39.9393 4.46044 39.616 4.264 39.2696 4.12533C38.9463 3.98667 38.6345 3.91733 38.3343 3.91733C37.8724 3.91733 37.4798 3.99822 37.1565 4.16C36.8563 4.29867 36.6254 4.51822 36.4637 4.81867C36.3252 5.11911 36.2559 5.47733 36.2559 5.89333V7.76533H40.378V11.5093H36.2559V25.6533H34.1082H32.9305H31.9606Z" fill="black"/><defs><linearGradient id="paint0_linear_1131_899" x1="6.18424" y1="19.746" x2="19.868" y2="5.89472" gradientUnits="userSpaceOnUse"><stop stop-color="#4678EE"/><stop offset="1" stop-color="#6B93F1"/></linearGradient><linearGradient id="paint1_linear_1131_899" x1="6.18424" y1="19.746" x2="19.868" y2="5.89472" gradientUnits="userSpaceOnUse"><stop stop-color="#4678EE"/><stop offset="1" stop-color="#6B93F1"/></linearGradient><linearGradient id="paint2_linear_1131_899" x1="6.18424" y1="19.746" x2="19.868" y2="5.89472" gradientUnits="userSpaceOnUse"><stop stop-color="#4678EE"/><stop offset="1" stop-color="#6B93F1"/></linearGradient></defs></svg>